<?xml version="1.0" encoding="UTF-8" standalone="no"?>
<!-- Generator: Adobe Illustrator 13.0.0, SVG Export Plug-In . SVG Version: 6.00 Build 14948)  -->

<svg
   xmlns:dc="http://purl.org/dc/elements/1.1/"
   xmlns:cc="http://creativecommons.org/ns#"
   xmlns:rdf="http://www.w3.org/1999/02/22-rdf-syntax-ns#"
   xmlns:svg="http://www.w3.org/2000/svg"
   xmlns="http://www.w3.org/2000/svg"
   xmlns:sodipodi="http://sodipodi.sourceforge.net/DTD/sodipodi-0.dtd"
   xmlns:inkscape="http://www.inkscape.org/namespaces/inkscape"
   version="1.1"
   id="Layer_1"
   x="0px"
   y="0px"
   width="300px"
   height="550px"
   viewBox="0 0 300 550"
   xml:space="preserve"
   inkscape:version="0.48.2 r9819"
   sodipodi:docname="java.svg"
   style="enable-background:new 0 0 300 550;"
   inkscape:export-filename="/home/bodil/workspace/icanhasclojure/resources/public/media/java.png"
   inkscape:export-xdpi="98.181816"
   inkscape:export-ydpi="98.181816"><metadata
   id="metadata3767"><rdf:RDF><cc:Work
       rdf:about=""><dc:format>image/svg+xml</dc:format><dc:type
         rdf:resource="http://purl.org/dc/dcmitype/StillImage" /><dc:title></dc:title></cc:Work></rdf:RDF></metadata><defs
   id="defs3765"><filter
     id="filter5771"
     inkscape:label="Drop shadow"
     width="1.5"
     height="1.5"
     x="-.25"
     y="-.25"><feGaussianBlur
       id="feGaussianBlur5773"
       in="SourceAlpha"
       stdDeviation="2"
       result="blur" /><feColorMatrix
       id="feColorMatrix5775"
       result="bluralpha"
       type="matrix"
       values="1 0 0 0 0 0 1 0 0 0 0 0 1 0 0 0 0 0 0.3 0 " /><feOffset
       id="feOffset5777"
       in="bluralpha"
       dx="4"
       dy="4"
       result="offsetBlur" /><feMerge
       id="feMerge5779"><feMergeNode
         id="feMergeNode5781"
         in="offsetBlur" /><feMergeNode
         id="feMergeNode5783"
         in="SourceGraphic" /></feMerge></filter><filter
     id="filter5785"
     inkscape:label="Drop shadow"
     width="1.5"
     height="1.5"
     x="-.25"
     y="-.25"><feGaussianBlur
       id="feGaussianBlur5787"
       in="SourceAlpha"
       stdDeviation="2"
       result="blur" /><feColorMatrix
       id="feColorMatrix5789"
       result="bluralpha"
       type="matrix"
       values="1 0 0 0 0 0 1 0 0 0 0 0 1 0 0 0 0 0 0.3 0 " /><feOffset
       id="feOffset5791"
       in="bluralpha"
       dx="4"
       dy="4"
       result="offsetBlur" /><feMerge
       id="feMerge5793"><feMergeNode
         id="feMergeNode5795"
         in="offsetBlur" /><feMergeNode
         id="feMergeNode5797"
         in="SourceGraphic" /></feMerge></filter><filter
     id="filter5799"
     inkscape:label="Drop shadow"
     width="1.5"
     height="1.5"
     x="-.25"
     y="-.25"><feGaussianBlur
       id="feGaussianBlur5801"
       in="SourceAlpha"
       stdDeviation="2"
       result="blur" /><feColorMatrix
       id="feColorMatrix5803"
       result="bluralpha"
       type="matrix"
       values="1 0 0 0 0 0 1 0 0 0 0 0 1 0 0 0 0 0 0.3 0 " /><feOffset
       id="feOffset5805"
       in="bluralpha"
       dx="4"
       dy="4"
       result="offsetBlur" /><feMerge
       id="feMerge5807"><feMergeNode
         id="feMergeNode5809"
         in="offsetBlur" /><feMergeNode
         id="feMergeNode5811"
         in="SourceGraphic" /></feMerge></filter><filter
     id="filter5813"
     inkscape:label="Drop shadow"
     width="1.5"
     height="1.5"
     x="-.25"
     y="-.25"><feGaussianBlur
       id="feGaussianBlur5815"
       in="SourceAlpha"
       stdDeviation="2"
       result="blur" /><feColorMatrix
       id="feColorMatrix5817"
       result="bluralpha"
       type="matrix"
       values="1 0 0 0 0 0 1 0 0 0 0 0 1 0 0 0 0 0 0.3 0 " /><feOffset
       id="feOffset5819"
       in="bluralpha"
       dx="4"
       dy="4"
       result="offsetBlur" /><feMerge
       id="feMerge5821"><feMergeNode
         id="feMergeNode5823"
         in="offsetBlur" /><feMergeNode
         id="feMergeNode5825"
         in="SourceGraphic" /></feMerge></filter><filter
     id="filter5827"
     inkscape:label="Drop shadow"
     width="1.5"
     height="1.5"
     x="-.25"
     y="-.25"><feGaussianBlur
       id="feGaussianBlur5829"
       in="SourceAlpha"
       stdDeviation="2"
       result="blur" /><feColorMatrix
       id="feColorMatrix5831"
       result="bluralpha"
       type="matrix"
       values="1 0 0 0 0 0 1 0 0 0 0 0 1 0 0 0 0 0 0.3 0 " /><feOffset
       id="feOffset5833"
       in="bluralpha"
       dx="4"
       dy="4"
       result="offsetBlur" /><feMerge
       id="feMerge5835"><feMergeNode
         id="feMergeNode5837"
         in="offsetBlur" /><feMergeNode
         id="feMergeNode5839"
         in="SourceGraphic" /></feMerge></filter><filter
     id="filter5841"
     inkscape:label="Drop shadow"
     width="1.5"
     height="1.5"
     x="-.25"
     y="-.25"><feGaussianBlur
       id="feGaussianBlur5843"
       in="SourceAlpha"
       stdDeviation="2"
       result="blur" /><feColorMatrix
       id="feColorMatrix5845"
       result="bluralpha"
       type="matrix"
       values="1 0 0 0 0 0 1 0 0 0 0 0 1 0 0 0 0 0 0.3 0 " /><feOffset
       id="feOffset5847"
       in="bluralpha"
       dx="4"
       dy="4"
       result="offsetBlur" /><feMerge
       id="feMerge5849"><feMergeNode
         id="feMergeNode5851"
         in="offsetBlur" /><feMergeNode
         id="feMergeNode5853"
         in="SourceGraphic" /></feMerge></filter><filter
     id="filter5855"
     inkscape:label="Drop shadow"
     width="1.5"
     height="1.5"
     x="-.25"
     y="-.25"><feGaussianBlur
       id="feGaussianBlur5857"
       in="SourceAlpha"
       stdDeviation="2"
       result="blur" /><feColorMatrix
       id="feColorMatrix5859"
       result="bluralpha"
       type="matrix"
       values="1 0 0 0 0 0 1 0 0 0 0 0 1 0 0 0 0 0 0.3 0 " /><feOffset
       id="feOffset5861"
       in="bluralpha"
       dx="4"
       dy="4"
       result="offsetBlur" /><feMerge
       id="feMerge5863"><feMergeNode
         id="feMergeNode5865"
         in="offsetBlur" /><feMergeNode
         id="feMergeNode5867"
         in="SourceGraphic" /></feMerge></filter><filter
     id="filter5869"
     inkscape:label="Drop shadow"
     width="1.5"
     height="1.5"
     x="-.25"
     y="-.25"><feGaussianBlur
       id="feGaussianBlur5871"
       in="SourceAlpha"
       stdDeviation="2"
       result="blur" /><feColorMatrix
       id="feColorMatrix5873"
       result="bluralpha"
       type="matrix"
       values="1 0 0 0 0 0 1 0 0 0 0 0 1 0 0 0 0 0 0.3 0 " /><feOffset
       id="feOffset5875"
       in="bluralpha"
       dx="4"
       dy="4"
       result="offsetBlur" /><feMerge
       id="feMerge5877"><feMergeNode
         id="feMergeNode5879"
         in="offsetBlur" /><feMergeNode
         id="feMergeNode5881"
         in="SourceGraphic" /></feMerge></filter><filter
     id="filter5883"
     inkscape:label="Drop shadow"
     width="1.5"
     height="1.5"
     x="-.25"
     y="-.25"><feGaussianBlur
       id="feGaussianBlur5885"
       in="SourceAlpha"
       stdDeviation="2"
       result="blur" /><feColorMatrix
       id="feColorMatrix5887"
       result="bluralpha"
       type="matrix"
       values="1 0 0 0 0 0 1 0 0 0 0 0 1 0 0 0 0 0 0.3 0 " /><feOffset
       id="feOffset5889"
       in="bluralpha"
       dx="4"
       dy="4"
       result="offsetBlur" /><feMerge
       id="feMerge5891"><feMergeNode
         id="feMergeNode5893"
         in="offsetBlur" /><feMergeNode
         id="feMergeNode5895"
         in="SourceGraphic" /></feMerge></filter><filter
     id="filter5897"
     inkscape:label="Drop shadow"
     width="1.5"
     height="1.5"
     x="-.25"
     y="-.25"><feGaussianBlur
       id="feGaussianBlur5899"
       in="SourceAlpha"
       stdDeviation="2"
       result="blur" /><feColorMatrix
       id="feColorMatrix5901"
       result="bluralpha"
       type="matrix"
       values="1 0 0 0 0 0 1 0 0 0 0 0 1 0 0 0 0 0 0.3 0 " /><feOffset
       id="feOffset5903"
       in="bluralpha"
       dx="4"
       dy="4"
       result="offsetBlur" /><feMerge
       id="feMerge5905"><feMergeNode
         id="feMergeNode5907"
         in="offsetBlur" /><feMergeNode
         id="feMergeNode5909"
         in="SourceGraphic" /></feMerge></filter><filter
     id="filter5911"
     inkscape:label="Drop shadow"
     width="1.5"
     height="1.5"
     x="-.25"
     y="-.25"><feGaussianBlur
       id="feGaussianBlur5913"
       in="SourceAlpha"
       stdDeviation="2"
       result="blur" /><feColorMatrix
       id="feColorMatrix5915"
       result="bluralpha"
       type="matrix"
       values="1 0 0 0 0 0 1 0 0 0 0 0 1 0 0 0 0 0 0.3 0 " /><feOffset
       id="feOffset5917"
       in="bluralpha"
       dx="4"
       dy="4"
       result="offsetBlur" /><feMerge
       id="feMerge5919"><feMergeNode
         id="feMergeNode5921"
         in="offsetBlur" /><feMergeNode
         id="feMergeNode5923"
         in="SourceGraphic" /></feMerge></filter><filter
     id="filter5925"
     inkscape:label="Drop shadow"
     width="1.5"
     height="1.5"
     x="-.25"
     y="-.25"><feGaussianBlur
       id="feGaussianBlur5927"
       in="SourceAlpha"
       stdDeviation="2"
       result="blur" /><feColorMatrix
       id="feColorMatrix5929"
       result="bluralpha"
       type="matrix"
       values="1 0 0 0 0 0 1 0 0 0 0 0 1 0 0 0 0 0 0.3 0 " /><feOffset
       id="feOffset5931"
       in="bluralpha"
       dx="4"
       dy="4"
       result="offsetBlur" /><feMerge
       id="feMerge5933"><feMergeNode
         id="feMergeNode5935"
         in="offsetBlur" /><feMergeNode
         id="feMergeNode5937"
         in="SourceGraphic" /></feMerge></filter><filter
     id="filter5939"
     inkscape:label="Drop shadow"
     width="1.5"
     height="1.5"
     x="-.25"
     y="-.25"><feGaussianBlur
       id="feGaussianBlur5941"
       in="SourceAlpha"
       stdDeviation="2"
       result="blur" /><feColorMatrix
       id="feColorMatrix5943"
       result="bluralpha"
       type="matrix"
       values="1 0 0 0 0 0 1 0 0 0 0 0 1 0 0 0 0 0 0.3 0 " /><feOffset
       id="feOffset5945"
       in="bluralpha"
       dx="4"
       dy="4"
       result="offsetBlur" /><feMerge
       id="feMerge5947"><feMergeNode
         id="feMergeNode5949"
         in="offsetBlur" /><feMergeNode
         id="feMergeNode5951"
         in="SourceGraphic" /></feMerge></filter></defs><sodipodi:namedview
   pagecolor="#ffffff"
   bordercolor="#666666"
   borderopacity="1"
   objecttolerance="10"
   gridtolerance="10"
   guidetolerance="10"
   inkscape:pageopacity="0"
   inkscape:pageshadow="2"
   inkscape:window-width="1440"
   inkscape:window-height="876"
   id="namedview3763"
   showgrid="false"
   inkscape:zoom="1"
   inkscape:cx="199.76552"
   inkscape:cy="306.75727"
   inkscape:window-x="0"
   inkscape:window-y="24"
   inkscape:window-maximized="1"
   inkscape:current-layer="Layer_1" />
<path
   style="fill:#E76F00;filter:url(#filter5939)"
   d="M285.104,430.945h-2.038v-1.14h5.486v1.14h-2.024v5.688h-1.424V430.945z M296.046,431.242h-0.032  l-2.019,5.392h-0.924l-2.006-5.392h-0.025v5.392h-1.342v-6.828h1.975l1.86,4.835l1.854-4.835h1.968v6.828h-1.31V431.242z"
   id="path3737" />
<path
   style="fill:#5382A1;filter:url(#filter5925)"
   d="M102.681,291.324c0,0-14.178,8.245,10.09,11.035c29.4,3.354,44.426,2.873,76.825-3.259  c0,0,8.518,5.341,20.414,9.967C137.38,340.195,45.634,307.264,102.681,291.324"
   id="path3739" />
<path
   style="fill:#5382A1;filter:url(#filter5911)"
   d="M93.806,250.704c0,0-15.902,11.771,8.384,14.283c31.406,3.24,56.208,3.505,99.125-4.759  c0,0,5.936,6.018,15.27,9.309C128.771,295.215,30.962,271.562,93.806,250.704"
   id="path3741" />
<path
   style="fill:#E76F00;filter:url(#filter5897)"
   d="M168.625,181.799c17.896,20.604-4.702,39.145-4.702,39.145s45.441-23.458,24.572-52.833  c-19.491-27.394-34.438-41.005,46.479-87.934C234.974,80.177,107.961,111.899,168.625,181.799"
   id="path3743" />
<path
   style="fill:#5382A1;filter:url(#filter5883)"
   d="M264.684,321.369c0,0,10.492,8.645-11.555,15.333c-41.923,12.7-174.488,16.535-211.314,0.506  c-13.238-5.759,11.587-13.751,19.396-15.428c8.144-1.766,12.798-1.437,12.798-1.437c-14.722-10.371-95.157,20.364-40.857,29.166  C181.236,373.524,303.095,338.695,264.684,321.369"
   id="path3745" />
<path
   style="fill:#5382A1;filter:url(#filter5869)"
   d="M109.499,208.617c0,0-67.431,16.016-23.879,21.832c18.389,2.462,55.047,1.905,89.193-0.956  c27.906-2.354,55.927-7.359,55.927-7.359s-9.84,4.214-16.959,9.075c-68.475,18.009-200.756,9.631-162.674-8.79  C83.313,206.851,109.499,208.617,109.499,208.617"
   id="path3747" />
<path
   style="fill:#5382A1;filter:url(#filter5855)"
   d="M230.462,276.231c69.608-36.171,37.424-70.931,14.96-66.248c-5.506,1.146-7.961,2.139-7.961,2.139  s2.044-3.202,5.948-4.588c44.441-15.624,78.619,46.081-14.346,70.52C229.063,278.055,230.14,277.092,230.462,276.231"
   id="path3749" />
<path
   style="fill:#E76F00;filter:url(#filter5841)"
   d="M188.495,4.399c0,0,38.55,38.563-36.563,97.862c-60.233,47.568-13.735,74.69-0.025,105.678  c-35.159-31.722-60.961-59.647-43.651-85.637C133.663,84.151,204.049,65.654,188.495,4.399"
   id="path3751" />
<path
   style="fill:#5382A1;filter:url(#filter5827)"
   d="M116.339,374.246c66.815,4.277,169.417-2.373,171.847-33.988c0,0-4.671,11.985-55.219,21.503  c-57.028,10.732-127.364,9.479-169.081,2.601C63.887,364.361,72.426,371.43,116.339,374.246"
   id="path3753" />
<path
   style="fill:#E76F00;filter:url(#filter5813)"
   d="M105.389,495.048c-6.303,5.467-12.96,8.536-18.934,8.536c-8.527,0-13.134-5.113-13.134-13.314  c0-8.871,4.936-15.357,24.739-15.357h7.328V495.048 M122.781,514.671v-60.742c0-15.517-8.85-25.756-30.188-25.756  c-12.457,0-23.369,3.076-32.238,6.999l2.56,10.752c6.983-2.563,16.022-4.949,24.894-4.949c12.292,0,17.58,4.949,17.58,15.181v7.677  h-6.135c-29.865,0-43.337,11.593-43.337,28.994c0,15.017,8.878,23.553,25.594,23.553c10.745,0,18.766-4.436,26.264-10.928  l1.361,9.22H122.781z"
   id="path3755" />
<path
   style="fill:#E76F00;filter:url(#filter5799)"
   d="M180.825,514.671h-21.692l-26.106-84.96h18.943l16.199,52.2l3.601,15.699  c8.195-22.698,13.991-45.726,16.89-67.899h18.427C202.15,457.688,193.266,488.396,180.825,514.671"
   id="path3757" />
<path
   style="fill:#E76F00;filter:url(#filter5785)"
   d="M264.038,495.048c-6.315,5.467-12.984,8.536-18.958,8.536c-8.512,0-13.131-5.113-13.131-13.314  c0-8.871,4.948-15.357,24.749-15.357h7.34V495.048 M281.428,514.671v-60.742c0-15.517-8.872-25.756-30.185-25.756  c-12.466,0-23.382,3.076-32.247,6.999l2.556,10.752c6.986-2.563,16.042-4.949,24.907-4.949c12.283,0,17.579,4.949,17.579,15.181  v7.677h-6.145c-29.874,0-43.34,11.593-43.34,28.994c0,15.017,8.871,23.553,25.584,23.553c10.751,0,18.769-4.436,26.28-10.928  l1.366,9.22H281.428z"
   id="path3759" />
<path
   style="fill:#E76F00;filter:url(#filter5771)"
   d="M36.847,529.099c-4.958,7.239-12.966,12.966-21.733,16.206l-8.587-10.105  c6.673-3.424,12.396-8.954,15.055-14.105c2.3-4.581,3.252-10.485,3.252-24.604v-96.995h18.478v95.666  C43.311,514.038,41.802,521.663,36.847,529.099"
   id="path3761" />
</svg>